<mxfile host="app.diagrams.net" modified="2020-06-14T21:52:17.485Z" agent="5.0 (Windows NT 10.0; WOW64) AppleWebKit/537.36 (KHTML, like Gecko) Chrome/83.0.4103.97 Safari/537.36" etag="S66T_-N1dK7s23XtXnat" version="13.2.4" type="github">
  <diagram id="LPvJvEeU72jQoP10iN9A" name="Page-1">
    <mxGraphModel dx="868" dy="1689" grid="1" gridSize="10" guides="1" tooltips="1" connect="1" arrows="1" fold="1" page="1" pageScale="1" pageWidth="827" pageHeight="1169" math="0" shadow="0">
      <root>
        <mxCell id="0" />
        <mxCell id="1" parent="0" />
        <mxCell id="3O2j-QyaprjNgMAAa9Qj-1" value="User" style="shape=umlActor;verticalLabelPosition=bottom;labelBackgroundColor=#ffffff;verticalAlign=top;html=1;" parent="1" vertex="1">
          <mxGeometry x="10" y="300" width="50" height="90" as="geometry" />
        </mxCell>
        <mxCell id="3O2j-QyaprjNgMAAa9Qj-2" value="Faculty" style="ellipse;whiteSpace=wrap;html=1;" parent="1" vertex="1">
          <mxGeometry x="330" y="40" width="110" height="40" as="geometry" />
        </mxCell>
        <mxCell id="3O2j-QyaprjNgMAAa9Qj-3" value="School" style="ellipse;whiteSpace=wrap;html=1;" parent="1" vertex="1">
          <mxGeometry x="330" y="170" width="110" height="40" as="geometry" />
        </mxCell>
        <mxCell id="3O2j-QyaprjNgMAAa9Qj-4" value="Course" style="ellipse;whiteSpace=wrap;html=1;" parent="1" vertex="1">
          <mxGeometry x="350" y="520" width="110" height="40" as="geometry" />
        </mxCell>
        <mxCell id="3O2j-QyaprjNgMAAa9Qj-6" value="Extends" style="endArrow=block;endSize=16;endFill=0;html=1;entryX=1;entryY=0.5;entryDx=0;entryDy=0;exitX=0;exitY=0.5;exitDx=0;exitDy=0;" parent="1" source="3O2j-QyaprjNgMAAa9Qj-7" target="3O2j-QyaprjNgMAAa9Qj-4" edge="1">
          <mxGeometry width="160" relative="1" as="geometry">
            <mxPoint x="480" y="170" as="sourcePoint" />
            <mxPoint x="620" y="170" as="targetPoint" />
          </mxGeometry>
        </mxCell>
        <mxCell id="3O2j-QyaprjNgMAAa9Qj-7" value="course_pre-requisite" style="ellipse;whiteSpace=wrap;html=1;" parent="1" vertex="1">
          <mxGeometry x="600" y="600" width="130" height="40" as="geometry" />
        </mxCell>
        <mxCell id="3O2j-QyaprjNgMAAa9Qj-8" value="course_Co-requisite" style="ellipse;whiteSpace=wrap;html=1;" parent="1" vertex="1">
          <mxGeometry x="520" y="660" width="130" height="40" as="geometry" />
        </mxCell>
        <mxCell id="3O2j-QyaprjNgMAAa9Qj-10" value="Extends" style="endArrow=block;endSize=16;endFill=0;html=1;entryX=1;entryY=1;entryDx=0;entryDy=0;" parent="1" source="3O2j-QyaprjNgMAAa9Qj-8" target="3O2j-QyaprjNgMAAa9Qj-4" edge="1">
          <mxGeometry width="160" relative="1" as="geometry">
            <mxPoint x="340" y="250" as="sourcePoint" />
            <mxPoint x="460" y="250" as="targetPoint" />
          </mxGeometry>
        </mxCell>
        <mxCell id="3O2j-QyaprjNgMAAa9Qj-11" value="" style="endArrow=block;dashed=1;endFill=0;endSize=12;html=1;entryX=0;entryY=1;entryDx=0;entryDy=0;" parent="1" source="3O2j-QyaprjNgMAAa9Qj-12" target="3O2j-QyaprjNgMAAa9Qj-4" edge="1">
          <mxGeometry width="160" relative="1" as="geometry">
            <mxPoint x="300" y="260" as="sourcePoint" />
            <mxPoint x="420" y="260" as="targetPoint" />
          </mxGeometry>
        </mxCell>
        <mxCell id="3O2j-QyaprjNgMAAa9Qj-13" value="&lt;font style=&quot;font-size: 14px&quot;&gt;Include&lt;/font&gt;" style="edgeLabel;html=1;align=center;verticalAlign=middle;resizable=0;points=[];" parent="3O2j-QyaprjNgMAAa9Qj-11" vertex="1" connectable="0">
          <mxGeometry x="-0.1464" y="4" relative="1" as="geometry">
            <mxPoint as="offset" />
          </mxGeometry>
        </mxCell>
        <mxCell id="3O2j-QyaprjNgMAAa9Qj-12" value="coursePoints" style="ellipse;whiteSpace=wrap;html=1;" parent="1" vertex="1">
          <mxGeometry x="130" y="550" width="120" height="30" as="geometry" />
        </mxCell>
        <mxCell id="3O2j-QyaprjNgMAAa9Qj-14" value="courseDuration" style="ellipse;whiteSpace=wrap;html=1;" parent="1" vertex="1">
          <mxGeometry x="170" y="605" width="120" height="30" as="geometry" />
        </mxCell>
        <mxCell id="3O2j-QyaprjNgMAAa9Qj-15" value="" style="endArrow=block;dashed=1;endFill=0;endSize=12;html=1;entryX=0.5;entryY=1;entryDx=0;entryDy=0;exitX=0.5;exitY=0;exitDx=0;exitDy=0;" parent="1" source="3O2j-QyaprjNgMAAa9Qj-14" target="3O2j-QyaprjNgMAAa9Qj-4" edge="1">
          <mxGeometry width="160" relative="1" as="geometry">
            <mxPoint x="268.9004271758147" y="290.1659547069755" as="sourcePoint" />
            <mxPoint x="326.1091270347399" y="194.14213562373095" as="targetPoint" />
          </mxGeometry>
        </mxCell>
        <mxCell id="3O2j-QyaprjNgMAAa9Qj-16" value="&lt;font style=&quot;font-size: 14px&quot;&gt;Include&lt;/font&gt;" style="edgeLabel;html=1;align=center;verticalAlign=middle;resizable=0;points=[];" parent="3O2j-QyaprjNgMAAa9Qj-15" vertex="1" connectable="0">
          <mxGeometry x="-0.1464" y="4" relative="1" as="geometry">
            <mxPoint as="offset" />
          </mxGeometry>
        </mxCell>
        <mxCell id="3O2j-QyaprjNgMAAa9Qj-19" value="" style="endArrow=block;dashed=1;endFill=0;endSize=12;html=1;exitX=0.5;exitY=0;exitDx=0;exitDy=0;entryX=0.682;entryY=1.025;entryDx=0;entryDy=0;entryPerimeter=0;" parent="1" source="3O2j-QyaprjNgMAAa9Qj-18" target="3O2j-QyaprjNgMAAa9Qj-4" edge="1">
          <mxGeometry width="160" relative="1" as="geometry">
            <mxPoint x="340" y="300" as="sourcePoint" />
            <mxPoint x="370" y="200" as="targetPoint" />
          </mxGeometry>
        </mxCell>
        <mxCell id="3O2j-QyaprjNgMAAa9Qj-20" value="&lt;font style=&quot;font-size: 14px&quot;&gt;Include&lt;/font&gt;" style="edgeLabel;html=1;align=center;verticalAlign=middle;resizable=0;points=[];" parent="3O2j-QyaprjNgMAAa9Qj-19" vertex="1" connectable="0">
          <mxGeometry x="-0.1464" y="4" relative="1" as="geometry">
            <mxPoint as="offset" />
          </mxGeometry>
        </mxCell>
        <mxCell id="3O2j-QyaprjNgMAAa9Qj-21" value="Rules" style="ellipse;whiteSpace=wrap;html=1;" parent="1" vertex="1">
          <mxGeometry x="340" y="240" width="110" height="40" as="geometry" />
        </mxCell>
        <mxCell id="3O2j-QyaprjNgMAAa9Qj-22" value="Admission" style="ellipse;whiteSpace=wrap;html=1;" parent="1" vertex="1">
          <mxGeometry x="340" y="420" width="110" height="40" as="geometry" />
        </mxCell>
        <mxCell id="3O2j-QyaprjNgMAAa9Qj-23" value="year of the rule" style="ellipse;whiteSpace=wrap;html=1;" parent="1" vertex="1">
          <mxGeometry x="340" y="350" width="120" height="30" as="geometry" />
        </mxCell>
        <mxCell id="3O2j-QyaprjNgMAAa9Qj-24" value="" style="endArrow=block;dashed=1;endFill=0;endSize=12;html=1;exitX=0.433;exitY=-0.067;exitDx=0;exitDy=0;exitPerimeter=0;entryX=0.5;entryY=1;entryDx=0;entryDy=0;" parent="1" source="3O2j-QyaprjNgMAAa9Qj-23" edge="1" target="3O2j-QyaprjNgMAAa9Qj-21">
          <mxGeometry width="160" relative="1" as="geometry">
            <mxPoint x="346.5" y="450" as="sourcePoint" />
            <mxPoint x="379" y="390" as="targetPoint" />
          </mxGeometry>
        </mxCell>
        <mxCell id="3O2j-QyaprjNgMAAa9Qj-25" value="&lt;font style=&quot;font-size: 14px&quot;&gt;Include&lt;/font&gt;" style="edgeLabel;html=1;align=center;verticalAlign=middle;resizable=0;points=[];" parent="3O2j-QyaprjNgMAAa9Qj-24" vertex="1" connectable="0">
          <mxGeometry x="-0.1464" y="4" relative="1" as="geometry">
            <mxPoint as="offset" />
          </mxGeometry>
        </mxCell>
        <mxCell id="3O2j-QyaprjNgMAAa9Qj-26" value="Report" style="ellipse;whiteSpace=wrap;html=1;" parent="1" vertex="1">
          <mxGeometry x="350" y="700" width="110" height="40" as="geometry" />
        </mxCell>
        <mxCell id="3O2j-QyaprjNgMAAa9Qj-27" value="" style="endArrow=none;html=1;strokeWidth=2;" parent="1" edge="1">
          <mxGeometry width="50" height="50" relative="1" as="geometry">
            <mxPoint x="120" y="762" as="sourcePoint" />
            <mxPoint x="120" as="targetPoint" />
          </mxGeometry>
        </mxCell>
        <mxCell id="3O2j-QyaprjNgMAAa9Qj-28" value="" style="endArrow=none;html=1;strokeWidth=2;" parent="1" edge="1">
          <mxGeometry width="50" height="50" relative="1" as="geometry">
            <mxPoint x="120" y="760" as="sourcePoint" />
            <mxPoint x="720" y="760" as="targetPoint" />
          </mxGeometry>
        </mxCell>
        <mxCell id="3O2j-QyaprjNgMAAa9Qj-29" value="" style="endArrow=none;html=1;strokeWidth=2;" parent="1" edge="1">
          <mxGeometry width="50" height="50" relative="1" as="geometry">
            <mxPoint x="720" y="760" as="sourcePoint" />
            <mxPoint x="720" as="targetPoint" />
          </mxGeometry>
        </mxCell>
        <mxCell id="3O2j-QyaprjNgMAAa9Qj-30" value="" style="endArrow=none;html=1;strokeWidth=2;" parent="1" edge="1">
          <mxGeometry width="50" height="50" relative="1" as="geometry">
            <mxPoint x="120" y="-1" as="sourcePoint" />
            <mxPoint x="720" y="-1" as="targetPoint" />
          </mxGeometry>
        </mxCell>
        <mxCell id="3O2j-QyaprjNgMAAa9Qj-32" value="" style="endArrow=none;html=1;strokeWidth=1;entryX=0;entryY=0.5;entryDx=0;entryDy=0;" parent="1" target="3O2j-QyaprjNgMAAa9Qj-2" edge="1">
          <mxGeometry width="50" height="50" relative="1" as="geometry">
            <mxPoint x="35" y="345" as="sourcePoint" />
            <mxPoint x="190" y="180" as="targetPoint" />
          </mxGeometry>
        </mxCell>
        <mxCell id="3O2j-QyaprjNgMAAa9Qj-33" value="" style="endArrow=none;html=1;strokeWidth=1;exitX=0.5;exitY=0.5;exitDx=0;exitDy=0;exitPerimeter=0;entryX=0;entryY=0.5;entryDx=0;entryDy=0;" parent="1" source="3O2j-QyaprjNgMAAa9Qj-1" target="3O2j-QyaprjNgMAAa9Qj-3" edge="1">
          <mxGeometry width="50" height="50" relative="1" as="geometry">
            <mxPoint x="180" y="230" as="sourcePoint" />
            <mxPoint x="230" y="180" as="targetPoint" />
          </mxGeometry>
        </mxCell>
        <mxCell id="3O2j-QyaprjNgMAAa9Qj-34" value="" style="endArrow=none;html=1;strokeWidth=1;entryX=0;entryY=0.5;entryDx=0;entryDy=0;exitX=0.5;exitY=0.5;exitDx=0;exitDy=0;exitPerimeter=0;" parent="1" target="3O2j-QyaprjNgMAAa9Qj-4" edge="1" source="3O2j-QyaprjNgMAAa9Qj-1">
          <mxGeometry width="50" height="50" relative="1" as="geometry">
            <mxPoint x="40" y="340" as="sourcePoint" />
            <mxPoint x="290" y="160" as="targetPoint" />
          </mxGeometry>
        </mxCell>
        <mxCell id="3O2j-QyaprjNgMAAa9Qj-35" value="" style="endArrow=none;html=1;strokeWidth=1;exitX=0.5;exitY=0.5;exitDx=0;exitDy=0;exitPerimeter=0;entryX=0;entryY=0.5;entryDx=0;entryDy=0;" parent="1" source="3O2j-QyaprjNgMAAa9Qj-1" target="3O2j-QyaprjNgMAAa9Qj-21" edge="1">
          <mxGeometry width="50" height="50" relative="1" as="geometry">
            <mxPoint x="40" y="350" as="sourcePoint" />
            <mxPoint x="210" y="350" as="targetPoint" />
          </mxGeometry>
        </mxCell>
        <mxCell id="3O2j-QyaprjNgMAAa9Qj-36" value="" style="endArrow=none;html=1;strokeWidth=1;exitX=0.5;exitY=0.5;exitDx=0;exitDy=0;exitPerimeter=0;entryX=0;entryY=0.5;entryDx=0;entryDy=0;" parent="1" source="3O2j-QyaprjNgMAAa9Qj-1" target="3O2j-QyaprjNgMAAa9Qj-22" edge="1">
          <mxGeometry width="50" height="50" relative="1" as="geometry">
            <mxPoint x="240" y="440" as="sourcePoint" />
            <mxPoint x="290" y="390" as="targetPoint" />
          </mxGeometry>
        </mxCell>
        <mxCell id="3O2j-QyaprjNgMAAa9Qj-38" value="Admin" style="shape=umlActor;verticalLabelPosition=bottom;labelBackgroundColor=#ffffff;verticalAlign=top;html=1;outlineConnect=0;" parent="1" vertex="1">
          <mxGeometry x="800" y="290" width="70" height="80" as="geometry" />
        </mxCell>
        <mxCell id="3O2j-QyaprjNgMAAa9Qj-41" value="" style="endArrow=none;html=1;strokeWidth=1;exitX=1;exitY=0.5;exitDx=0;exitDy=0;entryX=0.5;entryY=0.5;entryDx=0;entryDy=0;entryPerimeter=0;" parent="1" source="3O2j-QyaprjNgMAAa9Qj-2" target="3O2j-QyaprjNgMAAa9Qj-38" edge="1">
          <mxGeometry width="50" height="50" relative="1" as="geometry">
            <mxPoint x="580" y="70" as="sourcePoint" />
            <mxPoint x="630" y="20" as="targetPoint" />
          </mxGeometry>
        </mxCell>
        <mxCell id="3O2j-QyaprjNgMAAa9Qj-43" value="" style="endArrow=none;html=1;strokeWidth=1;exitX=0.5;exitY=0.5;exitDx=0;exitDy=0;exitPerimeter=0;entryX=1;entryY=0.5;entryDx=0;entryDy=0;" parent="1" source="3O2j-QyaprjNgMAAa9Qj-38" target="3O2j-QyaprjNgMAAa9Qj-3" edge="1">
          <mxGeometry width="50" height="50" relative="1" as="geometry">
            <mxPoint x="510" y="130" as="sourcePoint" />
            <mxPoint x="560" y="80" as="targetPoint" />
          </mxGeometry>
        </mxCell>
        <mxCell id="3O2j-QyaprjNgMAAa9Qj-44" value="" style="endArrow=none;html=1;strokeWidth=1;entryX=0.5;entryY=0.5;entryDx=0;entryDy=0;entryPerimeter=0;" parent="1" source="3O2j-QyaprjNgMAAa9Qj-4" target="3O2j-QyaprjNgMAAa9Qj-38" edge="1">
          <mxGeometry width="50" height="50" relative="1" as="geometry">
            <mxPoint x="680" y="190" as="sourcePoint" />
            <mxPoint x="730" y="140" as="targetPoint" />
          </mxGeometry>
        </mxCell>
        <mxCell id="3O2j-QyaprjNgMAAa9Qj-45" value="" style="endArrow=none;html=1;strokeWidth=1;entryX=0.5;entryY=0.5;entryDx=0;entryDy=0;entryPerimeter=0;exitX=1;exitY=0.5;exitDx=0;exitDy=0;" parent="1" source="3O2j-QyaprjNgMAAa9Qj-21" target="3O2j-QyaprjNgMAAa9Qj-38" edge="1">
          <mxGeometry width="50" height="50" relative="1" as="geometry">
            <mxPoint x="650" y="340" as="sourcePoint" />
            <mxPoint x="700" y="290" as="targetPoint" />
          </mxGeometry>
        </mxCell>
        <mxCell id="3O2j-QyaprjNgMAAa9Qj-46" value="" style="endArrow=none;html=1;strokeWidth=1;entryX=0.5;entryY=0.5;entryDx=0;entryDy=0;entryPerimeter=0;exitX=1;exitY=0.5;exitDx=0;exitDy=0;" parent="1" source="3O2j-QyaprjNgMAAa9Qj-22" target="3O2j-QyaprjNgMAAa9Qj-38" edge="1">
          <mxGeometry width="50" height="50" relative="1" as="geometry">
            <mxPoint x="590" y="360" as="sourcePoint" />
            <mxPoint x="640" y="310" as="targetPoint" />
          </mxGeometry>
        </mxCell>
        <mxCell id="3O2j-QyaprjNgMAAa9Qj-47" value="" style="endArrow=none;html=1;strokeWidth=1;exitX=1;exitY=0.5;exitDx=0;exitDy=0;entryX=0.5;entryY=0.5;entryDx=0;entryDy=0;entryPerimeter=0;" parent="1" source="3O2j-QyaprjNgMAAa9Qj-26" edge="1" target="3O2j-QyaprjNgMAAa9Qj-38">
          <mxGeometry width="50" height="50" relative="1" as="geometry">
            <mxPoint x="640" y="550" as="sourcePoint" />
            <mxPoint x="800" y="140" as="targetPoint" />
          </mxGeometry>
        </mxCell>
        <mxCell id="3O2j-QyaprjNgMAAa9Qj-48" value="" style="endArrow=none;dashed=1;html=1;strokeWidth=2;" parent="1" edge="1">
          <mxGeometry width="50" height="50" relative="1" as="geometry">
            <mxPoint x="120" y="140" as="sourcePoint" />
            <mxPoint x="720" y="130" as="targetPoint" />
          </mxGeometry>
        </mxCell>
        <mxCell id="3O2j-QyaprjNgMAAa9Qj-18" value="course year of study" style="ellipse;whiteSpace=wrap;html=1;" parent="1" vertex="1">
          <mxGeometry x="360" y="625" width="120" height="30" as="geometry" />
        </mxCell>
        <mxCell id="CZoQubL7EB9jkrVTdSKO-2" value="" style="endArrow=none;dashed=1;html=1;strokeWidth=2;" edge="1" parent="1">
          <mxGeometry width="50" height="50" relative="1" as="geometry">
            <mxPoint x="120" y="340" as="sourcePoint" />
            <mxPoint x="720" y="330" as="targetPoint" />
          </mxGeometry>
        </mxCell>
        <mxCell id="CZoQubL7EB9jkrVTdSKO-3" value="" style="endArrow=none;dashed=1;html=1;strokeWidth=2;" edge="1" parent="1">
          <mxGeometry width="50" height="50" relative="1" as="geometry">
            <mxPoint x="120" y="500" as="sourcePoint" />
            <mxPoint x="720" y="500" as="targetPoint" />
          </mxGeometry>
        </mxCell>
        <mxCell id="CZoQubL7EB9jkrVTdSKO-4" value="course description" style="ellipse;whiteSpace=wrap;html=1;" vertex="1" parent="1">
          <mxGeometry x="240" y="645" width="120" height="30" as="geometry" />
        </mxCell>
        <mxCell id="CZoQubL7EB9jkrVTdSKO-5" value="" style="endArrow=block;dashed=1;endFill=0;endSize=12;html=1;exitX=0.5;exitY=0;exitDx=0;exitDy=0;entryX=0.573;entryY=1.025;entryDx=0;entryDy=0;entryPerimeter=0;" edge="1" parent="1" source="CZoQubL7EB9jkrVTdSKO-4" target="3O2j-QyaprjNgMAAa9Qj-4">
          <mxGeometry width="160" relative="1" as="geometry">
            <mxPoint x="430" y="635" as="sourcePoint" />
            <mxPoint x="435.02" y="571" as="targetPoint" />
          </mxGeometry>
        </mxCell>
        <mxCell id="CZoQubL7EB9jkrVTdSKO-6" value="&lt;font style=&quot;font-size: 14px&quot;&gt;Include&lt;/font&gt;" style="edgeLabel;html=1;align=center;verticalAlign=middle;resizable=0;points=[];" vertex="1" connectable="0" parent="CZoQubL7EB9jkrVTdSKO-5">
          <mxGeometry x="-0.1464" y="4" relative="1" as="geometry">
            <mxPoint as="offset" />
          </mxGeometry>
        </mxCell>
        <mxCell id="CZoQubL7EB9jkrVTdSKO-7" value="&lt;font style=&quot;font-size: 14px&quot;&gt;&lt;b&gt;Sprint 1&lt;/b&gt;&lt;/font&gt;" style="text;html=1;align=center;verticalAlign=middle;resizable=0;points=[];autosize=1;rotation=90;" vertex="1" parent="1">
          <mxGeometry x="70" y="80" width="70" height="20" as="geometry" />
        </mxCell>
        <mxCell id="CZoQubL7EB9jkrVTdSKO-8" value="&lt;font style=&quot;font-size: 14px&quot;&gt;&lt;b&gt;Sprint 2&lt;/b&gt;&lt;/font&gt;" style="text;html=1;align=center;verticalAlign=middle;resizable=0;points=[];autosize=1;rotation=90;" vertex="1" parent="1">
          <mxGeometry x="70" y="220" width="70" height="20" as="geometry" />
        </mxCell>
        <mxCell id="CZoQubL7EB9jkrVTdSKO-9" value="&lt;font style=&quot;font-size: 14px&quot;&gt;&lt;b&gt;Sprint 3&lt;/b&gt;&lt;/font&gt;" style="text;html=1;align=center;verticalAlign=middle;resizable=0;points=[];autosize=1;rotation=90;" vertex="1" parent="1">
          <mxGeometry x="70" y="420" width="70" height="20" as="geometry" />
        </mxCell>
        <mxCell id="CZoQubL7EB9jkrVTdSKO-10" value="&lt;font style=&quot;font-size: 14px&quot;&gt;&lt;b&gt;Sprint 4&lt;/b&gt;&lt;/font&gt;" style="text;html=1;align=center;verticalAlign=middle;resizable=0;points=[];autosize=1;rotation=90;" vertex="1" parent="1">
          <mxGeometry x="70" y="605" width="70" height="20" as="geometry" />
        </mxCell>
      </root>
    </mxGraphModel>
  </diagram>
</mxfile>
